<?xml version="1.0" encoding="utf-8"?>
<!-- Generator: Adobe Illustrator 22.1.0, SVG Export Plug-In . SVG Version: 6.00 Build 0)  -->
<svg version="1.1" id="Layer_1" xmlns="http://www.w3.org/2000/svg" xmlns:xlink="http://www.w3.org/1999/xlink" x="0px" y="0px"
	 viewBox="0 0 151 41" style="enable-background:new 0 0 151 41;" xml:space="preserve">
<style type="text/css">
	.st0{enable-background:new    ;}
	.st1{fill:#5E5E5E;}
</style>
<image style="overflow:visible;enable-background:new    ;" width="151" height="41" id="Background" xlink:href="247C4631.jpg" >
</image>
<g id="Sign_in" class="st0">
	<path class="st1" d="M46.3,25.4V15.3h3.2c1,0,1.8,0.2,2.3,0.6c0.6,0.4,0.9,1,0.9,1.7c0,0.6-0.2,1.1-0.5,1.5
		c-0.3,0.4-0.8,0.7-1.4,0.9v0c0.7,0.1,1.3,0.3,1.7,0.8c0.4,0.4,0.6,1,0.6,1.7c0,0.9-0.3,1.6-1,2.1c-0.7,0.5-1.6,0.8-2.6,0.8H46.3z
		 M47.9,16.6v2.9H49c0.6,0,1-0.1,1.4-0.4s0.5-0.7,0.5-1.2c0-0.9-0.6-1.3-1.7-1.3H47.9z M47.9,20.9v3.2h1.4c0.6,0,1.1-0.1,1.5-0.4
		c0.3-0.3,0.5-0.7,0.5-1.2c0-1.1-0.7-1.6-2.2-1.6H47.9z"/>
	<path class="st1" d="M61,22.2h-5c0,0.7,0.2,1.2,0.6,1.6c0.4,0.4,0.9,0.5,1.6,0.5c0.8,0,1.5-0.2,2.1-0.7V25
		c-0.7,0.4-1.5,0.6-2.6,0.6c-1.1,0-1.9-0.3-2.5-1c-0.6-0.7-0.9-1.6-0.9-2.8c0-1.1,0.3-2.1,1-2.8c0.7-0.7,1.5-1.1,2.5-1.1
		s1.8,0.3,2.3,1c0.5,0.6,0.8,1.5,0.8,2.7V22.2z M59.4,21.1c0-0.6-0.1-1.1-0.4-1.4c-0.3-0.3-0.7-0.5-1.1-0.5c-0.5,0-0.9,0.2-1.2,0.5
		c-0.3,0.3-0.5,0.8-0.6,1.4H59.4z"/>
	<path class="st1" d="M64.2,25.1c0,1.2-0.3,2.1-0.8,2.8c-0.5,0.6-1.2,1-2.2,1c-0.3,0-0.7-0.1-1-0.2v-1.4c0.3,0.2,0.6,0.3,0.9,0.3
		c0.9,0,1.4-0.8,1.4-2.5v-6.9h1.6V25.1z M63.4,16.6c-0.3,0-0.5-0.1-0.7-0.3c-0.2-0.2-0.3-0.4-0.3-0.7c0-0.3,0.1-0.5,0.3-0.7
		c0.2-0.2,0.4-0.3,0.7-0.3c0.3,0,0.5,0.1,0.7,0.3s0.3,0.4,0.3,0.7c0,0.3-0.1,0.5-0.3,0.7S63.7,16.6,63.4,16.6z"/>
	<path class="st1" d="M72.5,22.2h-5c0,0.7,0.2,1.2,0.6,1.6c0.4,0.4,0.9,0.5,1.6,0.5c0.8,0,1.5-0.2,2.1-0.7V25
		c-0.7,0.4-1.5,0.6-2.6,0.6c-1.1,0-1.9-0.3-2.5-1c-0.6-0.7-0.9-1.6-0.9-2.8c0-1.1,0.3-2.1,1-2.8c0.7-0.7,1.5-1.1,2.5-1.1
		s1.8,0.3,2.3,1c0.5,0.6,0.8,1.5,0.8,2.7V22.2z M70.9,21.1c0-0.6-0.1-1.1-0.4-1.4c-0.3-0.3-0.7-0.5-1.1-0.5c-0.5,0-0.9,0.2-1.2,0.5
		c-0.3,0.3-0.5,0.8-0.6,1.4H70.9z"/>
	<path class="st1" d="M75.7,25.4h-1.7V14.7h1.7V25.4z"/>
	<path class="st1" d="M84,22.2h-5c0,0.7,0.2,1.2,0.6,1.6c0.4,0.4,0.9,0.5,1.6,0.5c0.8,0,1.5-0.2,2.1-0.7V25
		c-0.7,0.4-1.5,0.6-2.6,0.6c-1.1,0-1.9-0.3-2.5-1c-0.6-0.7-0.9-1.6-0.9-2.8c0-1.1,0.3-2.1,1-2.8c0.7-0.7,1.5-1.1,2.5-1.1
		c1,0,1.8,0.3,2.3,1c0.5,0.6,0.8,1.5,0.8,2.7V22.2z M82.5,21.1c0-0.6-0.1-1.1-0.4-1.4c-0.3-0.3-0.7-0.5-1.1-0.5
		c-0.5,0-0.9,0.2-1.2,0.5c-0.3,0.3-0.5,0.8-0.6,1.4H82.5z"/>
	<path class="st1" d="M92.1,25.4h-1.6v-4.1c0-1.4-0.5-2-1.4-2c-0.5,0-0.9,0.2-1.2,0.6c-0.3,0.4-0.5,0.9-0.5,1.4v4.1h-1.7v-7.3h1.7
		v1.2h0c0.5-0.9,1.3-1.4,2.4-1.4c0.8,0,1.4,0.3,1.8,0.8c0.4,0.5,0.6,1.3,0.6,2.2V25.4z"/>
	<path class="st1" d="M97.9,25.4c-0.3,0.2-0.7,0.2-1.3,0.2c-1.4,0-2.1-0.7-2.1-2v-4.1h-1.2v-1.3h1.2v-1.7l1.6-0.5v2.2h1.7v1.3h-1.7
		v3.6c0,0.4,0.1,0.7,0.2,0.9s0.4,0.3,0.8,0.3c0.3,0,0.5-0.1,0.7-0.2V25.4z"/>
	<path class="st1" d="M105.9,25.4h-2.1l-2.8-3.5h0v3.5h-1.7V14.7h1.7v6.8h0l2.7-3.3h2l-3,3.5L105.9,25.4z"/>
	<path class="st1" d="M112.9,22.2h-5c0,0.7,0.2,1.2,0.6,1.6c0.4,0.4,0.9,0.5,1.6,0.5c0.8,0,1.5-0.2,2.1-0.7V25
		c-0.7,0.4-1.5,0.6-2.6,0.6c-1.1,0-1.9-0.3-2.5-1c-0.6-0.7-0.9-1.6-0.9-2.8c0-1.1,0.3-2.1,1-2.8c0.7-0.7,1.5-1.1,2.5-1.1
		c1,0,1.8,0.3,2.3,1c0.5,0.6,0.8,1.5,0.8,2.7V22.2z M111.3,21.1c0-0.6-0.1-1.1-0.4-1.4c-0.3-0.3-0.7-0.5-1.1-0.5
		c-0.5,0-0.9,0.2-1.2,0.5c-0.3,0.3-0.5,0.8-0.6,1.4H111.3z"/>
	<path class="st1" d="M119.8,18.9l-3.9,5.3h3.9v1.3h-6.2v-0.6l4-5.4H114v-1.3h5.8V18.9z"/>
	<path class="st1" d="M127.3,22.2h-5c0,0.7,0.2,1.2,0.6,1.6c0.4,0.4,0.9,0.5,1.6,0.5c0.8,0,1.5-0.2,2.1-0.7V25
		c-0.7,0.4-1.5,0.6-2.6,0.6c-1.1,0-1.9-0.3-2.5-1c-0.6-0.7-0.9-1.6-0.9-2.8c0-1.1,0.3-2.1,1-2.8c0.7-0.7,1.5-1.1,2.5-1.1
		c1,0,1.8,0.3,2.3,1c0.5,0.6,0.8,1.5,0.8,2.7V22.2z M125.8,21.1c0-0.6-0.1-1.1-0.4-1.4c-0.3-0.3-0.7-0.5-1.1-0.5
		c-0.5,0-0.9,0.2-1.2,0.5c-0.3,0.3-0.5,0.8-0.6,1.4H125.8z M126.2,14.5l-2,2.3H123l1.7-2.3H126.2z"/>
	<path class="st1" d="M128.5,25.2v-1.5c0.6,0.5,1.3,0.7,2,0.7c1,0,1.5-0.3,1.5-0.9c0-0.2,0-0.3-0.1-0.4c-0.1-0.1-0.2-0.2-0.3-0.3
		c-0.1-0.1-0.3-0.2-0.5-0.2c-0.2-0.1-0.4-0.2-0.7-0.2c-0.3-0.1-0.6-0.2-0.8-0.4c-0.2-0.1-0.4-0.3-0.6-0.5s-0.3-0.4-0.4-0.6
		c-0.1-0.2-0.1-0.5-0.1-0.7c0-0.4,0.1-0.7,0.2-0.9c0.2-0.3,0.4-0.5,0.7-0.7s0.6-0.3,1-0.4s0.7-0.1,1.1-0.1c0.7,0,1.3,0.1,1.8,0.3
		v1.4c-0.5-0.4-1.1-0.5-1.8-0.5c-0.2,0-0.4,0-0.6,0.1s-0.3,0.1-0.4,0.2s-0.2,0.2-0.3,0.3s-0.1,0.2-0.1,0.4c0,0.2,0,0.3,0.1,0.4
		s0.2,0.2,0.3,0.3c0.1,0.1,0.3,0.2,0.5,0.2c0.2,0.1,0.4,0.1,0.6,0.2c0.3,0.1,0.6,0.3,0.8,0.4c0.2,0.1,0.5,0.3,0.6,0.5
		c0.2,0.2,0.3,0.4,0.4,0.6s0.1,0.5,0.1,0.8c0,0.4-0.1,0.7-0.3,1c-0.2,0.3-0.4,0.5-0.7,0.7c-0.3,0.2-0.6,0.3-1,0.4s-0.8,0.1-1.2,0.1
		C129.7,25.6,129,25.5,128.5,25.2z"/>
</g>
</svg>
