<?xml version="1.0" encoding="utf-8"?>
<!-- Generator: Adobe Illustrator 22.1.0, SVG Export Plug-In . SVG Version: 6.00 Build 0)  -->
<svg version="1.1" id="Layer_1" xmlns="http://www.w3.org/2000/svg" xmlns:xlink="http://www.w3.org/1999/xlink" x="0px" y="0px"
	 viewBox="0 0 150 41" style="enable-background:new 0 0 150 41;" xml:space="preserve">
<style type="text/css">
	.st0{enable-background:new    ;}
	.st1{fill:#FFFFFF;}
</style>
<image style="overflow:visible;enable-background:new    ;" width="150" height="41" id="Background" xlink:href="13BAB6BB.jpg" >
</image>
<g id="Sign_in" class="st0">
	<path class="st1" d="M46.2,25.3V15.2h3.2c1,0,1.7,0.2,2.3,0.6c0.6,0.4,0.9,1,0.9,1.7c0,0.6-0.2,1.1-0.5,1.5
		c-0.3,0.4-0.8,0.7-1.3,0.9v0c0.7,0.1,1.2,0.3,1.7,0.8s0.6,1,0.6,1.7c0,0.9-0.3,1.6-1,2.1s-1.5,0.8-2.6,0.8H46.2z M47.9,16.6v2.9H49
		c0.6,0,1-0.1,1.4-0.4c0.3-0.3,0.5-0.7,0.5-1.2c0-0.9-0.6-1.3-1.7-1.3H47.9z M47.9,20.8V24h1.4c0.6,0,1.1-0.1,1.4-0.4
		s0.5-0.7,0.5-1.2c0-1-0.7-1.6-2.2-1.6H47.9z"/>
	<path class="st1" d="M60.9,22.2h-4.9c0,0.7,0.2,1.2,0.6,1.5s0.9,0.5,1.6,0.5c0.8,0,1.5-0.2,2.1-0.7v1.3c-0.7,0.4-1.5,0.6-2.6,0.6
		c-1.1,0-1.9-0.3-2.5-1c-0.6-0.7-0.9-1.6-0.9-2.8c0-1.1,0.3-2,1-2.7c0.7-0.7,1.5-1.1,2.5-1.1s1.7,0.3,2.3,0.9s0.8,1.5,0.8,2.6V22.2z
		 M59.3,21c0-0.6-0.1-1-0.4-1.4s-0.6-0.5-1.1-0.5c-0.5,0-0.9,0.2-1.2,0.5C56.2,20,56,20.5,55.9,21H59.3z"/>
	<path class="st1" d="M64,25c0,1.2-0.2,2.1-0.7,2.7c-0.5,0.6-1.2,1-2.1,1c-0.3,0-0.7-0.1-1-0.2v-1.4c0.3,0.2,0.6,0.3,0.9,0.3
		c0.9,0,1.4-0.8,1.4-2.4v-6.8H64V25z M63.2,16.6c-0.3,0-0.5-0.1-0.7-0.3c-0.2-0.2-0.3-0.4-0.3-0.7c0-0.3,0.1-0.5,0.3-0.7
		c0.2-0.2,0.4-0.3,0.7-0.3c0.3,0,0.5,0.1,0.7,0.3c0.2,0.2,0.3,0.4,0.3,0.7c0,0.3-0.1,0.5-0.3,0.7C63.7,16.5,63.5,16.6,63.2,16.6z"/>
	<path class="st1" d="M72.3,22.2h-4.9c0,0.7,0.2,1.2,0.6,1.5s0.9,0.5,1.6,0.5c0.8,0,1.5-0.2,2.1-0.7v1.3c-0.7,0.4-1.5,0.6-2.6,0.6
		c-1.1,0-1.9-0.3-2.5-1c-0.6-0.7-0.9-1.6-0.9-2.8c0-1.1,0.3-2,1-2.7c0.7-0.7,1.5-1.1,2.5-1.1s1.7,0.3,2.3,0.9s0.8,1.5,0.8,2.6V22.2z
		 M70.7,21c0-0.6-0.1-1-0.4-1.4s-0.6-0.5-1.1-0.5c-0.5,0-0.9,0.2-1.2,0.5c-0.3,0.3-0.5,0.8-0.6,1.3H70.7z"/>
	<path class="st1" d="M75.5,25.3h-1.6V14.7h1.6V25.3z"/>
	<path class="st1" d="M83.7,22.2h-4.9c0,0.7,0.2,1.2,0.6,1.5s0.9,0.5,1.6,0.5c0.8,0,1.5-0.2,2.1-0.7v1.3c-0.7,0.4-1.5,0.6-2.6,0.6
		c-1.1,0-1.9-0.3-2.5-1c-0.6-0.7-0.9-1.6-0.9-2.8c0-1.1,0.3-2,1-2.7s1.5-1.1,2.5-1.1s1.7,0.3,2.3,0.9s0.8,1.5,0.8,2.6V22.2z
		 M82.1,21c0-0.6-0.1-1-0.4-1.4s-0.6-0.5-1.1-0.5c-0.5,0-0.9,0.2-1.2,0.5C79,20,78.8,20.5,78.8,21H82.1z"/>
	<path class="st1" d="M91.6,25.3H90v-4.1c0-1.3-0.5-2-1.4-2c-0.5,0-0.9,0.2-1.2,0.6s-0.5,0.8-0.5,1.4v4.1h-1.6v-7.2h1.6v1.2h0
		c0.5-0.9,1.3-1.4,2.3-1.4c0.8,0,1.4,0.3,1.8,0.8c0.4,0.5,0.6,1.2,0.6,2.2V25.3z"/>
	<path class="st1" d="M97.4,25.2c-0.3,0.2-0.7,0.2-1.3,0.2c-1.4,0-2.1-0.7-2.1-2v-4.1h-1.2v-1.3h1.2v-1.7l1.6-0.5v2.1h1.7v1.3h-1.7
		V23c0,0.4,0.1,0.7,0.2,0.9c0.2,0.2,0.4,0.3,0.8,0.3c0.3,0,0.5-0.1,0.7-0.2V25.2z"/>
	<path class="st1" d="M105.4,25.3h-2.1l-2.8-3.5h0v3.5h-1.6V14.7h1.6v6.8h0l2.6-3.3h2l-3,3.5L105.4,25.3z"/>
	<path class="st1" d="M112.2,22.2h-4.9c0,0.7,0.2,1.2,0.6,1.5c0.4,0.4,0.9,0.5,1.6,0.5c0.8,0,1.5-0.2,2.1-0.7v1.3
		c-0.7,0.4-1.5,0.6-2.6,0.6c-1.1,0-1.9-0.3-2.5-1c-0.6-0.7-0.9-1.6-0.9-2.8c0-1.1,0.3-2,1-2.7c0.7-0.7,1.5-1.1,2.5-1.1
		s1.7,0.3,2.3,0.9s0.8,1.5,0.8,2.6V22.2z M110.7,21c0-0.6-0.1-1-0.4-1.4s-0.6-0.5-1.1-0.5c-0.5,0-0.9,0.2-1.2,0.5
		c-0.3,0.3-0.5,0.8-0.6,1.3H110.7z"/>
	<path class="st1" d="M119.1,18.8l-3.9,5.2h3.9v1.3h-6.2v-0.6l4-5.3h-3.6v-1.3h5.8V18.8z"/>
	<path class="st1" d="M126.6,22.2h-4.9c0,0.7,0.2,1.2,0.6,1.5s0.9,0.5,1.6,0.5c0.8,0,1.5-0.2,2.1-0.7v1.3c-0.7,0.4-1.5,0.6-2.6,0.6
		c-1.1,0-1.9-0.3-2.5-1c-0.6-0.7-0.9-1.6-0.9-2.8c0-1.1,0.3-2,1-2.7s1.5-1.1,2.5-1.1s1.7,0.3,2.3,0.9s0.8,1.5,0.8,2.6V22.2z M125,21
		c0-0.6-0.1-1-0.4-1.4s-0.6-0.5-1.1-0.5c-0.5,0-0.9,0.2-1.2,0.5c-0.3,0.3-0.5,0.8-0.6,1.3H125z M125.5,14.4l-2,2.3h-1.2l1.7-2.3
		H125.5z"/>
	<path class="st1" d="M127.7,25.1v-1.5c0.6,0.5,1.3,0.7,2,0.7c1,0,1.5-0.3,1.5-0.9c0-0.2,0-0.3-0.1-0.4c-0.1-0.1-0.2-0.2-0.3-0.3
		s-0.3-0.2-0.5-0.2c-0.2-0.1-0.4-0.1-0.7-0.2c-0.3-0.1-0.6-0.2-0.8-0.4c-0.2-0.1-0.4-0.3-0.6-0.4c-0.2-0.2-0.3-0.4-0.4-0.6
		s-0.1-0.5-0.1-0.7c0-0.3,0.1-0.7,0.2-0.9c0.2-0.3,0.4-0.5,0.7-0.7c0.3-0.2,0.6-0.3,0.9-0.4c0.4-0.1,0.7-0.1,1.1-0.1
		c0.7,0,1.3,0.1,1.8,0.3v1.4c-0.5-0.3-1.1-0.5-1.7-0.5c-0.2,0-0.4,0-0.6,0.1s-0.3,0.1-0.4,0.2c-0.1,0.1-0.2,0.2-0.3,0.3
		c-0.1,0.1-0.1,0.2-0.1,0.3c0,0.2,0,0.3,0.1,0.4c0.1,0.1,0.2,0.2,0.3,0.3s0.3,0.2,0.5,0.2c0.2,0.1,0.4,0.1,0.6,0.2
		c0.3,0.1,0.6,0.3,0.8,0.4c0.2,0.1,0.5,0.3,0.6,0.4c0.2,0.2,0.3,0.4,0.4,0.6s0.1,0.5,0.1,0.8c0,0.4-0.1,0.7-0.3,1
		c-0.2,0.3-0.4,0.5-0.7,0.7c-0.3,0.2-0.6,0.3-1,0.4c-0.4,0.1-0.8,0.1-1.2,0.1C128.9,25.5,128.3,25.4,127.7,25.1z"/>
</g>
</svg>
