<?xml version="1.0" encoding="utf-8"?>
<!-- Generator: Adobe Illustrator 22.1.0, SVG Export Plug-In . SVG Version: 6.00 Build 0)  -->
<svg version="1.1" id="Layer_1" xmlns="http://www.w3.org/2000/svg" xmlns:xlink="http://www.w3.org/1999/xlink" x="0px" y="0px"
	 viewBox="0 0 270 41" style="enable-background:new 0 0 270 41;" xml:space="preserve">
<style type="text/css">
	.st0{enable-background:new    ;}
	.st1{fill:#5E5E5E;}
</style>
<image style="overflow:visible;enable-background:new    ;" width="270" height="41" id="Background" xlink:href="2D5820D6.jpg" >
</image>
<g id="Sign_in_with_Microsoft" class="st0">
	<path class="st1" d="M46.6,25.7V15.3h3.3c1,0,1.8,0.2,2.4,0.7c0.6,0.4,0.9,1,0.9,1.7c0,0.6-0.2,1.1-0.5,1.5
		c-0.3,0.4-0.8,0.7-1.4,0.9v0c0.7,0.1,1.3,0.3,1.7,0.8c0.4,0.4,0.6,1,0.6,1.7c0,0.9-0.4,1.6-1.1,2.2c-0.7,0.6-1.6,0.8-2.7,0.8H46.6z
		 M48.3,16.7v3h1.1c0.6,0,1.1-0.1,1.4-0.4c0.3-0.3,0.5-0.7,0.5-1.2c0-0.9-0.6-1.3-1.8-1.3H48.3z M48.3,21v3.3h1.5
		c0.6,0,1.1-0.1,1.5-0.4c0.4-0.3,0.5-0.7,0.5-1.2c0-1.1-0.7-1.6-2.2-1.6H48.3z"/>
	<path class="st1" d="M61.7,22.4h-5.1c0,0.7,0.2,1.2,0.6,1.6c0.4,0.4,1,0.6,1.7,0.6c0.8,0,1.5-0.2,2.2-0.7v1.4
		c-0.7,0.4-1.6,0.6-2.7,0.6c-1.1,0-2-0.3-2.6-1c-0.6-0.7-0.9-1.6-0.9-2.9c0-1.2,0.3-2.1,1-2.8s1.5-1.1,2.6-1.1s1.8,0.3,2.4,1
		c0.6,0.7,0.8,1.6,0.8,2.7V22.4z M60.1,21.3c0-0.6-0.1-1.1-0.4-1.4c-0.3-0.3-0.7-0.5-1.2-0.5c-0.5,0-0.9,0.2-1.2,0.5
		c-0.3,0.4-0.5,0.8-0.6,1.4H60.1z"/>
	<path class="st1" d="M65,25.4c0,1.2-0.3,2.2-0.8,2.8s-1.2,1-2.2,1c-0.4,0-0.7-0.1-1-0.2v-1.4c0.3,0.2,0.6,0.3,0.9,0.3
		c1,0,1.4-0.8,1.4-2.5v-7.1H65V25.4z M64.2,16.7c-0.3,0-0.5-0.1-0.7-0.3c-0.2-0.2-0.3-0.4-0.3-0.7s0.1-0.5,0.3-0.7
		c0.2-0.2,0.4-0.3,0.7-0.3c0.3,0,0.5,0.1,0.7,0.3c0.2,0.2,0.3,0.4,0.3,0.7c0,0.3-0.1,0.5-0.3,0.7C64.7,16.6,64.5,16.7,64.2,16.7z"/>
	<path class="st1" d="M73.5,22.4h-5.1c0,0.7,0.2,1.2,0.6,1.6c0.4,0.4,1,0.6,1.7,0.6c0.8,0,1.5-0.2,2.2-0.7v1.4
		c-0.7,0.4-1.6,0.6-2.7,0.6c-1.1,0-2-0.3-2.6-1c-0.6-0.7-0.9-1.6-0.9-2.9c0-1.2,0.3-2.1,1-2.8s1.5-1.1,2.6-1.1s1.8,0.3,2.4,1
		c0.6,0.7,0.8,1.6,0.8,2.7V22.4z M71.9,21.3c0-0.6-0.1-1.1-0.4-1.4c-0.3-0.3-0.7-0.5-1.2-0.5c-0.5,0-0.9,0.2-1.2,0.5
		c-0.3,0.4-0.5,0.8-0.6,1.4H71.9z"/>
	<path class="st1" d="M76.8,25.7h-1.7v-11h1.7V25.7z"/>
	<path class="st1" d="M85.4,22.4h-5.1c0,0.7,0.2,1.2,0.6,1.6c0.4,0.4,1,0.6,1.7,0.6c0.8,0,1.5-0.2,2.2-0.7v1.4
		c-0.7,0.4-1.6,0.6-2.7,0.6c-1.1,0-2-0.3-2.6-1c-0.6-0.7-0.9-1.6-0.9-2.9c0-1.2,0.3-2.1,1-2.8s1.5-1.1,2.6-1.1s1.8,0.3,2.4,1
		c0.6,0.7,0.8,1.6,0.8,2.7V22.4z M83.7,21.3c0-0.6-0.1-1.1-0.4-1.4c-0.3-0.3-0.7-0.5-1.2-0.5c-0.5,0-0.9,0.2-1.2,0.5
		c-0.3,0.4-0.5,0.8-0.6,1.4H83.7z"/>
	<path class="st1" d="M93.6,25.7h-1.7v-4.2c0-1.4-0.5-2.1-1.5-2.1c-0.5,0-0.9,0.2-1.3,0.6c-0.3,0.4-0.5,0.9-0.5,1.5v4.2H87v-7.5h1.7
		v1.2h0c0.6-0.9,1.4-1.4,2.4-1.4c0.8,0,1.4,0.3,1.9,0.8s0.6,1.3,0.6,2.3V25.7z"/>
	<path class="st1" d="M99.6,25.6c-0.3,0.2-0.8,0.2-1.3,0.2c-1.4,0-2.2-0.7-2.2-2.1v-4.2h-1.2v-1.3h1.2v-1.7l1.7-0.5v2.2h1.8v1.3
		h-1.8v3.7c0,0.4,0.1,0.8,0.2,0.9c0.2,0.2,0.4,0.3,0.8,0.3c0.3,0,0.5-0.1,0.7-0.2V25.6z"/>
	<path class="st1" d="M107.8,25.7h-2.1l-2.9-3.6h0v3.6H101v-11h1.7v7h0l2.7-3.4h2l-3.1,3.6L107.8,25.7z"/>
	<path class="st1" d="M114.9,22.4h-5.1c0,0.7,0.2,1.2,0.6,1.6c0.4,0.4,1,0.6,1.7,0.6c0.8,0,1.5-0.2,2.2-0.7v1.4
		c-0.7,0.4-1.6,0.6-2.7,0.6c-1.1,0-2-0.3-2.6-1c-0.6-0.7-0.9-1.6-0.9-2.9c0-1.2,0.3-2.1,1-2.8c0.7-0.7,1.5-1.1,2.6-1.1
		c1,0,1.8,0.3,2.4,1c0.6,0.7,0.8,1.6,0.8,2.7V22.4z M113.3,21.3c0-0.6-0.1-1.1-0.4-1.4c-0.3-0.3-0.7-0.5-1.2-0.5
		c-0.5,0-0.9,0.2-1.2,0.5c-0.3,0.4-0.5,0.8-0.6,1.4H113.3z"/>
	<path class="st1" d="M122,19l-4,5.4h4v1.3h-6.4v-0.6l4.1-5.5H116v-1.3h6V19z"/>
	<path class="st1" d="M129.7,22.4h-5.1c0,0.7,0.2,1.2,0.6,1.6c0.4,0.4,1,0.6,1.7,0.6c0.8,0,1.5-0.2,2.2-0.7v1.4
		c-0.7,0.4-1.6,0.6-2.7,0.6c-1.1,0-2-0.3-2.6-1c-0.6-0.7-0.9-1.6-0.9-2.9c0-1.2,0.3-2.1,1-2.8c0.7-0.7,1.5-1.1,2.6-1.1
		s1.8,0.3,2.4,1c0.6,0.7,0.8,1.6,0.8,2.7V22.4z M128.1,21.3c0-0.6-0.1-1.1-0.4-1.4c-0.3-0.3-0.7-0.5-1.2-0.5c-0.5,0-0.9,0.2-1.2,0.5
		s-0.5,0.8-0.6,1.4H128.1z M128.6,14.5l-2.1,2.4h-1.3l1.8-2.4H128.6z"/>
	<path class="st1" d="M130.9,25.5v-1.6c0.6,0.5,1.3,0.7,2.1,0.7c1,0,1.5-0.3,1.5-0.9c0-0.2,0-0.3-0.1-0.4c-0.1-0.1-0.2-0.2-0.4-0.3
		c-0.1-0.1-0.3-0.2-0.5-0.2c-0.2-0.1-0.4-0.2-0.7-0.2c-0.3-0.1-0.6-0.2-0.8-0.4s-0.4-0.3-0.6-0.5c-0.2-0.2-0.3-0.4-0.4-0.6
		c-0.1-0.2-0.1-0.5-0.1-0.8c0-0.4,0.1-0.7,0.3-0.9c0.2-0.3,0.4-0.5,0.7-0.7s0.6-0.3,1-0.4c0.4-0.1,0.7-0.1,1.1-0.1
		c0.7,0,1.3,0.1,1.8,0.3v1.5c-0.5-0.4-1.1-0.5-1.8-0.5c-0.2,0-0.4,0-0.6,0.1c-0.2,0-0.3,0.1-0.4,0.2c-0.1,0.1-0.2,0.2-0.3,0.3
		c-0.1,0.1-0.1,0.2-0.1,0.4c0,0.2,0,0.3,0.1,0.4c0.1,0.1,0.2,0.2,0.3,0.3c0.1,0.1,0.3,0.2,0.5,0.2s0.4,0.1,0.6,0.2
		c0.3,0.1,0.6,0.3,0.9,0.4s0.5,0.3,0.7,0.5c0.2,0.2,0.3,0.4,0.4,0.6c0.1,0.2,0.1,0.5,0.1,0.8c0,0.4-0.1,0.7-0.3,1
		c-0.2,0.3-0.4,0.5-0.7,0.7s-0.6,0.3-1,0.4s-0.8,0.1-1.2,0.1C132.2,25.9,131.5,25.8,130.9,25.5z"/>
	<path class="st1" d="M153.3,25.7h-1.7V19c0-0.6,0-1.2,0.1-2h0c-0.1,0.5-0.2,0.8-0.3,1l-3.1,7.8H147l-3.1-7.7
		c-0.1-0.2-0.2-0.6-0.3-1h0c0,0.4,0.1,1.1,0.1,2v6.7h-1.6V15.3h2.4l2.7,6.9c0.2,0.5,0.3,0.9,0.4,1.2h0c0.2-0.5,0.3-1,0.4-1.2
		l2.8-6.9h2.3V25.7z"/>
	<path class="st1" d="M156.5,16.7c-0.3,0-0.5-0.1-0.7-0.3c-0.2-0.2-0.3-0.4-0.3-0.7s0.1-0.5,0.3-0.7c0.2-0.2,0.4-0.3,0.7-0.3
		c0.3,0,0.5,0.1,0.7,0.3c0.2,0.2,0.3,0.4,0.3,0.7c0,0.3-0.1,0.5-0.3,0.7C157,16.6,156.8,16.7,156.5,16.7z M157.3,25.7h-1.7v-7.5h1.7
		V25.7z"/>
	<path class="st1" d="M164.9,25.4c-0.6,0.3-1.3,0.5-2.1,0.5c-1.1,0-2-0.3-2.7-1c-0.7-0.7-1-1.6-1-2.7c0-1.2,0.4-2.2,1.1-3
		c0.7-0.7,1.7-1.1,2.9-1.1c0.7,0,1.3,0.1,1.8,0.4V20c-0.5-0.4-1.1-0.6-1.7-0.6c-0.7,0-1.3,0.2-1.8,0.7c-0.5,0.5-0.7,1.1-0.7,1.9
		c0,0.8,0.2,1.4,0.6,1.8c0.4,0.4,1,0.7,1.7,0.7c0.6,0,1.2-0.2,1.7-0.6V25.4z"/>
	<path class="st1" d="M170.9,19.9c-0.2-0.2-0.5-0.2-0.9-0.2c-0.5,0-0.9,0.2-1.3,0.7c-0.3,0.5-0.5,1.1-0.5,1.8v3.6h-1.7v-7.5h1.7v1.5
		h0c0.2-0.5,0.4-0.9,0.8-1.2s0.7-0.4,1.1-0.4c0.3,0,0.5,0,0.7,0.1V19.9z"/>
	<path class="st1" d="M175.2,25.9c-1.1,0-2.1-0.3-2.8-1c-0.7-0.7-1-1.6-1-2.8c0-1.3,0.4-2.2,1.1-2.9c0.7-0.7,1.7-1.1,2.9-1.1
		c1.2,0,2.1,0.3,2.7,1c0.7,0.7,1,1.6,1,2.8c0,1.2-0.4,2.1-1.1,2.9S176.4,25.9,175.2,25.9z M175.3,19.4c-0.7,0-1.2,0.2-1.6,0.7
		c-0.4,0.5-0.6,1.1-0.6,1.9c0,0.8,0.2,1.4,0.6,1.8c0.4,0.4,0.9,0.7,1.6,0.7c0.7,0,1.2-0.2,1.5-0.7s0.5-1.1,0.5-1.9
		c0-0.8-0.2-1.5-0.5-1.9S176,19.4,175.3,19.4z"/>
	<path class="st1" d="M180.4,25.5v-1.6c0.6,0.5,1.3,0.7,2.1,0.7c1,0,1.5-0.3,1.5-0.9c0-0.2,0-0.3-0.1-0.4c-0.1-0.1-0.2-0.2-0.4-0.3
		c-0.1-0.1-0.3-0.2-0.5-0.2c-0.2-0.1-0.4-0.2-0.7-0.2c-0.3-0.1-0.6-0.2-0.8-0.4s-0.4-0.3-0.6-0.5c-0.2-0.2-0.3-0.4-0.4-0.6
		c-0.1-0.2-0.1-0.5-0.1-0.8c0-0.4,0.1-0.7,0.3-0.9c0.2-0.3,0.4-0.5,0.7-0.7s0.6-0.3,1-0.4c0.4-0.1,0.7-0.1,1.1-0.1
		c0.7,0,1.3,0.1,1.8,0.3v1.5c-0.5-0.4-1.1-0.5-1.8-0.5c-0.2,0-0.4,0-0.6,0.1c-0.2,0-0.3,0.1-0.4,0.2c-0.1,0.1-0.2,0.2-0.3,0.3
		c-0.1,0.1-0.1,0.2-0.1,0.4c0,0.2,0,0.3,0.1,0.4c0.1,0.1,0.2,0.2,0.3,0.3c0.1,0.1,0.3,0.2,0.5,0.2s0.4,0.1,0.6,0.2
		c0.3,0.1,0.6,0.3,0.9,0.4s0.5,0.3,0.7,0.5c0.2,0.2,0.3,0.4,0.4,0.6c0.1,0.2,0.1,0.5,0.1,0.8c0,0.4-0.1,0.7-0.3,1
		c-0.2,0.3-0.4,0.5-0.7,0.7s-0.6,0.3-1,0.4s-0.8,0.1-1.2,0.1C181.7,25.9,181,25.8,180.4,25.5z"/>
	<path class="st1" d="M190.5,25.9c-1.1,0-2.1-0.3-2.8-1c-0.7-0.7-1-1.6-1-2.8c0-1.3,0.4-2.2,1.1-2.9c0.7-0.7,1.7-1.1,2.9-1.1
		c1.2,0,2.1,0.3,2.7,1c0.7,0.7,1,1.6,1,2.8c0,1.2-0.4,2.1-1.1,2.9S191.7,25.9,190.5,25.9z M190.6,19.4c-0.7,0-1.2,0.2-1.6,0.7
		c-0.4,0.5-0.6,1.1-0.6,1.9c0,0.8,0.2,1.4,0.6,1.8c0.4,0.4,0.9,0.7,1.6,0.7c0.7,0,1.2-0.2,1.5-0.7s0.5-1.1,0.5-1.9
		c0-0.8-0.2-1.5-0.5-1.9S191.3,19.4,190.6,19.4z"/>
	<path class="st1" d="M200.1,16.1c-0.2-0.1-0.5-0.2-0.8-0.2c-0.8,0-1.2,0.5-1.2,1.4v1h1.7v1.3h-1.7v6.1h-1.7v-6.1h-1.3v-1.3h1.3
		v-1.2c0-0.8,0.3-1.4,0.8-1.9c0.5-0.5,1.2-0.7,1.9-0.7c0.4,0,0.7,0,1,0.1V16.1z"/>
	<path class="st1" d="M205.2,25.6c-0.3,0.2-0.8,0.2-1.3,0.2c-1.4,0-2.2-0.7-2.2-2.1v-4.2h-1.2v-1.3h1.2v-1.7l1.7-0.5v2.2h1.8v1.3
		h-1.8v3.7c0,0.4,0.1,0.8,0.2,0.9s0.4,0.3,0.8,0.3c0.3,0,0.5-0.1,0.7-0.2V25.6z"/>
	<path class="st1" d="M209.9,22.3h-4V21h4V22.3z"/>
	<path class="st1" d="M216.1,16.1c-0.2-0.1-0.5-0.2-0.8-0.2c-0.8,0-1.2,0.5-1.2,1.4v1h1.7v1.3h-1.7v6.1h-1.7v-6.1h-1.3v-1.3h1.3
		v-1.2c0-0.8,0.3-1.4,0.8-1.9c0.5-0.5,1.2-0.7,1.9-0.7c0.4,0,0.7,0,1,0.1V16.1z M217.9,16.7c-0.3,0-0.5-0.1-0.7-0.3
		c-0.2-0.2-0.3-0.4-0.3-0.7s0.1-0.5,0.3-0.7c0.2-0.2,0.4-0.3,0.7-0.3c0.3,0,0.5,0.1,0.7,0.3c0.2,0.2,0.3,0.4,0.3,0.7
		c0,0.3-0.1,0.5-0.3,0.7C218.4,16.6,218.2,16.7,217.9,16.7z M218.8,25.7h-1.7v-7.5h1.7V25.7z"/>
	<path class="st1" d="M224.2,25.9c-1.1,0-2.1-0.3-2.8-1c-0.7-0.7-1-1.6-1-2.8c0-1.3,0.4-2.2,1.1-2.9c0.7-0.7,1.7-1.1,2.9-1.1
		c1.2,0,2.1,0.3,2.7,1c0.7,0.7,1,1.6,1,2.8c0,1.2-0.4,2.1-1.1,2.9S225.4,25.9,224.2,25.9z M224.3,19.4c-0.7,0-1.2,0.2-1.6,0.7
		c-0.4,0.5-0.6,1.1-0.6,1.9c0,0.8,0.2,1.4,0.6,1.8c0.4,0.4,0.9,0.7,1.6,0.7c0.7,0,1.2-0.2,1.5-0.7s0.5-1.1,0.5-1.9
		c0-0.8-0.2-1.5-0.5-1.9S225,19.4,224.3,19.4z M226.5,14.5l-2.1,2.4h-1.3l1.8-2.4H226.5z"/>
	<path class="st1" d="M236.6,25.7h-2.1l-2.9-3.6h0v3.6h-1.7v-11h1.7v7h0l2.7-3.4h2l-3.1,3.6L236.6,25.7z"/>
	<path class="st1" d="M244.4,25.7h-2.1l-2.9-3.6h0v3.6h-1.7v-11h1.7v7h0l2.7-3.4h2l-3.1,3.6L244.4,25.7z"/>
	<path class="st1" d="M251.2,25.7h-1.6v-1.2h0c-0.5,0.9-1.3,1.3-2.3,1.3c-0.7,0-1.3-0.2-1.7-0.6c-0.4-0.4-0.6-0.9-0.6-1.6
		c0-1.4,0.8-2.2,2.4-2.5l2.2-0.3c0-1.1-0.5-1.6-1.5-1.6c-0.9,0-1.7,0.3-2.4,0.9v-1.5c0.8-0.5,1.7-0.7,2.7-0.7c1.9,0,2.8,0.9,2.8,2.8
		V25.7z M249.6,22.1l-1.6,0.2c-0.5,0.1-0.8,0.2-1.1,0.4c-0.2,0.2-0.4,0.5-0.4,0.9c0,0.3,0.1,0.6,0.3,0.8c0.2,0.2,0.5,0.3,0.9,0.3
		c0.5,0,0.9-0.2,1.3-0.5c0.3-0.4,0.5-0.8,0.5-1.4V22.1z"/>
	<path class="st1" d="M255,25.7h-1.7v-11h1.7V25.7z"/>
</g>
</svg>
